{"title":"Bin.Laden","uid":9058578,"size":349461344,"categoryP":"video","categoryS":"movies","magnet":"?xt=urn:btih:71ffc0a37817bf02ad139201cd75b6003e37be67&amp;dn=Bin.Laden&amp;tr=udp%3A%2F%2Ftracker.openbittorrent.com%3A80&amp;tr=udp%3A%2F%2Fopen.demonii.com%3A1337&amp;tr=udp%3A%2F%2Ftracker.coppersurfer.tk%3A6969&amp;tr=udp%3A%2F%2Fexodus.desync.com%3A6969","seeders":0,"leechers":0,"uploader":"FigaroUno","files":-1,"time":1382004309,"description":"It tells of the hopes and fears of the villagers stiffled by the fundamentalists.\n\n                           A SHORT DOCUMENTARY\n &lt;a href=&quot;\nhttp://www.imdb.com/title/tt0880463/?ref_=fn_al_tt_1&quot; rel=&quot;nofollow&quot; target=&quot;_NEW&quot;&gt;\nhttp://www.imdb.com/title/tt0880463/?ref_=fn_al_tt_1&lt;/a&gt;\n\n\nComplete name                      :IN.THE.SHADOW.OF.BIN.LADEN.mp4.DVD.RIP.\nFormat                                   : MPEG-4\nFormat profile                           : Base Media\nCodec ID                                 : isom\nFile size                                : 332 MiB\nDuration                                 : 35mn 15s\nOverall bit rate                         : 1 315 Kbps\nMovie name                               : SHADOW_OF_BIN_LADEN\nGenre                                    : DOCUMENTARY\nWriting application                      : Lavf54.46.100\n\nID                                       : 1\nFormat                                   : MPEG-4 Visual\nFormat settings, BVOP                    : No\nFormat settings, QPel                    : No\nFormat settings, GMC                     : No warppoints\nFormat settings, Matrix                  : Default (H.263)\nCodec ID                                 : 20\nDuration                                 : 35mn 15s\nBit rate mode                            : Constant\nBit rate                                 : 1 183 Kbps\nWidth                                    : 720 pixels\nHeight                                   : 540 pixels\nDisplay aspect ratio                     : 4:3\nFrame rate mode                          : Constant\nFrame rate                               : 23.976 fps\nColor space                              : YUV\nChroma subsampling                       : 4:2:0\nBit depth                                : 8 bits\nScan type                                : Progressive\nCompression mode                         : Lossy\nBits/(Pixel*Frame)                       : 0.127\nStream size                              : 298 MiB (90%)\nWriting library                          : Lavc54.79.100\n\nID                                       : 2\nFormat                                   : AAC\nFormat/Info                              : Advanced Audio Codec\nFormat profile                           : LC\nCodec ID                                 : 40\nDuration                                 : 35mn 15s\nBit rate mode                            : Constant\nBit rate                                 : 127 Kbps\nChannel(s)                               : 2 channels\nChannel positions                        : Front: L R\nSampling rate                            : 44.1 KHz\nCompression mode                         : Lossy\nStream size                              : 32.1 MiB (10%)","torrent":{"xt":"urn:btih:71ffc0a37817bf02ad139201cd75b6003e37be67","amp;dn":"Bin.Laden","amp;tr":["udp%3A%2F%2Ftracker.openbittorrent.com%3A80","udp%3A%2F%2Fopen.demonii.com%3A1337","udp%3A%2F%2Ftracker.coppersurfer.tk%3A6969","udp%3A%2F%2Fexodus.desync.com%3A6969"],"infoHash":"71ffc0a37817bf02ad139201cd75b6003e37be67","infoHashBuffer":{"type":"Buffer","data":[113,255,192,163,120,23,191,2,173,19,146,1,205,117,182,0,62,55,190,103]},"announce":[],"urlList":[]}}